<svg xmlns="http://www.w3.org/2000/svg" viewBox="0 0 184.3 217.16"><defs><style>.cls-1{fill:#f7f8f9;}</style></defs><g id="Calque_2" data-name="Calque 2"><g id="logo"><path class="cls-1" d="M125.24,22.79l-8.37,4.59A98.06,98.06,0,0,0,90.52,17.22a69.92,69.92,0,0,0-15.26-1.63,96.13,96.13,0,0,0-21.63,2.65,95,95,0,0,1,29.59-4.47,103,103,0,0,1,22,2.3A101.31,101.31,0,0,1,125.24,22.79Z"/><path class="cls-1" d="M181.83,137a119.77,119.77,0,0,1-12.09,32l-12.89-28.44a97.45,97.45,0,0,0,7.4-21.36c3.93-17.54,1.06-35.82-8.29-52.89L163.23,53A100.92,100.92,0,0,1,181.83,137Z"/><polygon class="cls-1" points="183.28 0 157.93 46.17 150.78 59.18 133.95 89.84 93.4 89.83 93.42 49.29 123.9 32.56 133.99 27.03 183.28 0"/><path class="cls-1" d="M167.54,183.27l-5-2.29-29.8-13.53L97,151.24a50.94,50.94,0,0,0,2-6.41A50.18,50.18,0,0,0,94,109.09h39.92l17.72,39.09,13.22,29.16Z"/><path class="cls-1" d="M74.15,49.3V89.19a50.44,50.44,0,0,0-12.83-4.93c-.57-.12-1.14-.25-1.71-.36A50.12,50.12,0,0,0,32,86.2L0,15.64Z"/><path class="cls-1" d="M157,187.19a89,89,0,0,1-27.94,21.7,81.63,81.63,0,0,1-36.16,8.27c-22.52,0-43.72-7.79-59.69-21.93-15.08-13.34-24-31.13-24.36-48.81-.27-11.5,3.37-27.81,14.39-39.08a35.12,35.12,0,0,1,26-10.93,39.72,39.72,0,0,1,7.75.7l1.27.28a36.94,36.94,0,0,1,25.26,51.09l0,.08,0,.07c-2.39,6.07-2,11.78,1.27,16.51C89.21,171.73,98.89,176,109.38,176a33.49,33.49,0,0,0,10.51-1.61c1.72-.57,3.31-1.17,4.84-1.84Z"/></g></g></svg>